<?xml version="1.0" standalone="no"?>
<!DOCTYPE svg PUBLIC "-//W3C//DTD SVG 20010904//EN"
 "http://www.w3.org/TR/2001/REC-SVG-20010904/DTD/svg10.dtd">
<svg version="1.0" xmlns="http://www.w3.org/2000/svg"
 width="512.000000pt" height="512.000000pt" viewBox="0 0 512.000000 512.000000"
 preserveAspectRatio="xMidYMid meet">
<metadata>
Created by potrace 1.14, written by Peter Selinger 2001-2017
</metadata>
<g transform="translate(0.000000,512.000000) scale(0.100000,-0.100000)"
fill="#000000" stroke="none">
<path d="M1505 3899 c-200 -21 -333 -65 -600 -197 -213 -105 -263 -123 -362
-127 -153 -5 -208 -50 -240 -197 -13 -62 -24 -87 -50 -116 -47 -51 -56 -89
-49 -194 6 -99 28 -151 78 -188 36 -27 334 -140 369 -140 44 0 80 42 71 85 -7
38 -41 60 -162 104 -63 23 -123 46 -132 52 -10 5 -24 9 -32 9 -23 0 -34 23
-40 82 -6 55 -5 58 34 103 22 25 42 56 45 68 2 12 9 48 15 79 6 32 18 64 25
72 9 8 42 14 97 15 105 2 122 9 472 175 225 107 319 135 510 151 152 13 222 7
315 -26 46 -17 186 -99 201 -118 3 -3 21 -18 42 -33 20 -15 42 -34 50 -41 7
-7 48 -41 91 -75 79 -62 105 -75 155 -74 125 3 371 1 388 -2 11 -2 45 -7 75
-10 148 -17 300 -61 445 -127 86 -39 84 -36 84 -180 0 -86 -4 -130 -12 -135
-6 -4 -29 -8 -52 -10 -58 -5 -85 -22 -92 -60 -13 -72 28 -104 128 -98 92 5
165 61 188 142 12 45 13 272 1 326 -14 59 -59 107 -141 150 -102 54 -264 109
-380 130 -19 3 -46 8 -60 11 -14 3 -50 8 -80 11 -30 3 -66 7 -80 10 -14 3
-112 5 -218 5 l-194 0 -86 73 c-126 106 -228 181 -296 218 -59 32 -146 69
-146 63 0 -2 -20 3 -44 10 -47 14 -215 16 -331 4z"/>
<path d="M3956 3855 c-109 -45 -185 -140 -200 -250 -3 -22 -5 -275 -6 -562 l0
-523 -1757 -2 -1758 -3 -49 -24 c-63 -31 -126 -94 -157 -157 -23 -47 -24 -57
-24 -259 0 -200 1 -212 23 -253 35 -66 88 -119 150 -149 55 -27 63 -28 243
-31 183 -3 187 -3 214 20 38 33 38 93 0 125 -25 22 -34 23 -194 23 -165 0
-168 0 -209 27 -62 41 -72 75 -72 254 0 176 11 211 82 253 l43 26 1590 0 c875
0 1681 0 1793 0 202 0 203 0 227 25 l25 24 0 593 0 593 23 40 c14 26 37 48 65
62 41 20 58 22 255 22 117 0 229 -5 251 -10 80 -21 136 -78 174 -175 11 -27
75 -186 144 -354 69 -168 129 -316 133 -330 5 -14 9 -95 10 -180 l1 -155 -111
2 c-119 2 -163 -8 -214 -48 -73 -58 -95 -181 -47 -263 51 -88 191 -155 310
-150 l63 3 -2 -75 c-2 -63 -7 -79 -29 -109 -36 -47 -77 -66 -147 -70 -68 -4
-77 -8 -94 -48 -30 -71 23 -118 125 -110 126 9 217 65 270 165 19 36 20 58 20
550 -1 400 -4 521 -14 548 -37 98 -282 683 -308 737 -37 77 -117 154 -195 191
-58 27 -59 27 -323 29 -260 3 -266 2 -324 -22z m988 -1507 c21 -29 21 -92 0
-109 -35 -29 -137 -6 -191 44 -28 25 -29 41 -4 66 15 15 35 19 100 20 72 1 82
-1 95 -21z"/>
<path d="M4260 3567 c-58 -14 -112 -58 -142 -116 l-28 -53 0 -237 c0 -234 0
-238 25 -288 26 -51 63 -86 120 -113 43 -19 558 -23 596 -4 44 22 54 89 19
124 -24 24 0 22 -306 24 -233 1 -254 3 -273 20 -20 18 -21 28 -21 231 0 275
-11 259 170 260 132 2 133 2 157 29 35 42 25 107 -19 122 -32 11 -255 12 -298
1z"/>
<path d="M963 3212 c-147 -53 -232 -171 -233 -324 -1 -280 317 -441 546 -276
127 91 173 273 107 420 -30 68 -103 140 -170 170 -66 29 -183 34 -250 10z
m190 -159 c150 -77 128 -297 -33 -341 -85 -23 -173 17 -211 95 -59 123 28 263
164 263 26 0 62 -7 80 -17z"/>
<path d="M2765 3212 c-101 -43 -157 -94 -195 -178 -22 -47 -39 -126 -34 -160
10 -75 17 -101 38 -143 104 -203 384 -248 547 -87 167 165 122 445 -88 551
-49 26 -71 30 -143 32 -60 1 -97 -3 -125 -15z m199 -162 c90 -43 124 -156 75
-252 -69 -135 -288 -115 -334 31 -4 14 -7 44 -7 68 3 131 145 212 266 153z"/>
<path d="M1453 2844 c-34 -27 -36 -85 -4 -118 21 -21 25 -21 531 -21 l509 0
23 22 c29 29 28 87 -1 117 -21 20 -27 21 -526 21 -501 0 -506 0 -532 -21z"/>
<path d="M4110 2608 c-17 -19 -20 -35 -20 -128 0 -98 2 -108 23 -128 29 -27
77 -28 108 -3 22 18 24 28 27 123 4 99 3 104 -22 131 -32 35 -86 37 -116 5z"/>
<path d="M1178 2219 c-171 -27 -312 -131 -384 -284 -91 -196 -52 -421 99 -569
101 -99 217 -148 351 -148 230 0 418 139 489 362 21 69 19 212 -5 290 -58 185
-228 330 -408 346 -30 3 -64 7 -75 8 -11 1 -41 -1 -67 -5z m199 -181 c67 -25
151 -104 184 -174 19 -40 24 -66 24 -139 0 -78 -4 -97 -27 -145 -35 -70 -70
-109 -133 -149 -122 -77 -261 -70 -381 19 -185 139 -183 407 5 544 97 72 213
87 328 44z"/>
<path d="M4077 2224 c-1 -1 -24 -4 -52 -7 -229 -24 -420 -234 -430 -474 -7
-145 42 -271 146 -376 198 -199 515 -199 713 0 261 264 150 717 -204 831 -55
17 -164 34 -173 26z m96 -168 c92 -15 189 -90 232 -182 66 -140 33 -302 -85
-408 -68 -61 -138 -88 -230 -87 -131 1 -249 82 -309 211 -20 44 -25 71 -25
131 0 66 5 86 32 142 73 149 216 220 385 193z"/>
<path d="M1865 1775 c-16 -15 -25 -36 -25 -55 0 -19 9 -40 25 -55 l24 -25 786
0 786 0 24 25 c35 34 34 86 -1 114 -26 21 -33 21 -811 21 l-784 0 -24 -25z"/>
</g>
</svg>
